<svg width="29" height="30" viewBox="0 0 29 30" fill="none" xmlns="http://www.w3.org/2000/svg">
<g clip-path="url(#clip0_210_932)">
<path d="M28.2 19.1667L24.8 15L28.1333 10.9167C28.3157 10.6933 28.4305 10.4226 28.4645 10.1362C28.4984 9.84989 28.45 9.55982 28.325 9.3C28.1983 9.00878 27.9883 8.76158 27.7214 8.58955C27.4544 8.41752 27.1425 8.32837 26.825 8.33333H0.991667C0.782639 8.33002 0.575007 8.36792 0.38063 8.44487C0.186252 8.52181 0.00893611 8.6363 -0.141191 8.78178C-0.291317 8.92727 -0.411314 9.1009 -0.494327 9.29276C-0.577339 9.48463 -0.621743 9.69097 -0.625 9.9L-0.625 20.1083C-0.616241 20.529 -0.441249 20.9291 -0.138292 21.2212C0.164665 21.5132 0.570933 21.6734 0.991667 21.6667H26.9167C27.2236 21.6718 27.5255 21.589 27.7869 21.428C28.0483 21.2671 28.2581 21.0347 28.3917 20.7583C28.5116 20.5016 28.5572 20.2164 28.5233 19.9351C28.4894 19.6538 28.3774 19.3876 28.2 19.1667ZM1.04167 20V10H26.6917L22.6583 14.9417L26.75 20H1.04167Z" fill="black"/>
<path d="M7.19996 16.125L4.48329 12.5H3.54163V17.65H4.48329V14.0333L7.19996 17.65H8.13329V12.5H7.19996V16.125Z" fill="black"/>
<path d="M9.52502 17.65H13.4084V16.8H10.4667V15.4583H13.125V14.6H10.4667V13.3583H13.4084V12.5H9.52502V17.65Z" fill="black"/>
<path d="M19.8083 16.1917L18.5916 12.5H17.575L16.35 16.1917L15.25 12.5H14.225L15.8583 17.65H16.7833L18.0833 13.825L19.375 17.65H20.3166L21.9416 12.5H20.9166L19.8083 16.1917Z" fill="black"/>
</g>
<defs>
<clipPath id="clip0_210_932">
<rect width="28.75" height="30" fill="white"/>
</clipPath>
</defs>
</svg>
