<svg width="20" height="20" viewBox="0 0 20 20" fill="none" xmlns="http://www.w3.org/2000/svg">
<path d="M3.33329 2.5H15C15.442 2.5 15.8659 2.67559 16.1785 2.98816C16.491 3.30072 16.6666 3.72464 16.6666 4.16667V10.0667C15.4128 9.85517 14.1255 10.1293 13.0666 10.8333H9.99996V14.1667H10.9C10.8083 14.7333 10.8083 15.2917 10.9 15.8333H3.33329C2.89127 15.8333 2.46734 15.6577 2.15478 15.3452C1.84222 15.0326 1.66663 14.6087 1.66663 14.1667V4.16667C1.66663 3.25 2.41663 2.5 3.33329 2.5ZM3.33329 5.83333V9.16667H8.33329V5.83333H3.33329ZM9.99996 5.83333V9.16667H15V5.83333H9.99996ZM3.33329 10.8333V14.1667H8.33329V10.8333H3.33329ZM13.2833 15.4167H14.95V12.0833H16.6166V15.4167H18.2833L15.7833 17.9167L13.2833 15.4167Z" fill="white"/>
</svg>
