<svg width="21" height="21" viewBox="0 0 21 21" fill="none" xmlns="http://www.w3.org/2000/svg">
<path d="M10.5 1.3125C8.68289 1.3125 6.90658 1.85134 5.3957 2.86087C3.88483 3.87041 2.70724 5.3053 2.01186 6.9841C1.31648 8.66289 1.13454 10.5102 1.48904 12.2924C1.84354 14.0746 2.71857 15.7116 4.00346 16.9965C5.28836 18.2814 6.92541 19.1565 8.70761 19.511C10.4898 19.8655 12.3371 19.6835 14.0159 18.9881C15.6947 18.2928 17.1296 17.1152 18.1391 15.6043C19.1487 14.0934 19.6875 12.3171 19.6875 10.5C19.6847 8.06418 18.7159 5.72891 16.9935 4.00653C15.2711 2.28414 12.9358 1.31528 10.5 1.3125ZM2.63813 10.7586L3.51619 11.0513L4.59375 12.6676V13.5096C4.59379 13.6836 4.66296 13.8505 4.78604 13.9735L6.5625 15.75V17.3099C5.40637 16.6404 4.43956 15.6879 3.75304 14.5418C3.06651 13.3957 2.68284 12.0938 2.63813 10.7586ZM10.5 18.375C9.93228 18.3737 9.36637 18.311 8.81213 18.188L9.1875 17.0625L10.372 14.1015C10.4115 14.0026 10.4263 13.8957 10.4152 13.7898C10.4042 13.6839 10.3675 13.5823 10.3084 13.4938L9.38241 12.1045C9.32246 12.0147 9.24126 11.941 9.14602 11.8901C9.05077 11.8391 8.94442 11.8125 8.83641 11.8125H5.6011L4.7821 10.5833L6.17794 9.1875H7.21875V10.5H8.53125V8.70581L11.0696 4.263L9.93038 3.612L9.36929 4.59375H7.56985L6.85782 3.52472C7.8145 3.01983 8.86593 2.7199 9.94501 2.64409C11.0241 2.56827 12.1071 2.71822 13.125 3.08437V5.25C13.125 5.42405 13.1941 5.59097 13.3172 5.71404C13.4403 5.83711 13.6072 5.90625 13.7813 5.90625H14.7427C14.8507 5.90627 14.957 5.87962 15.0523 5.82868C15.1475 5.77774 15.2287 5.70407 15.2887 5.61422L15.8642 4.75059C16.6141 5.44931 17.2205 6.2877 17.6492 7.21875H14.9756C14.824 7.21884 14.677 7.27145 14.5598 7.36764C14.4425 7.46383 14.3622 7.59766 14.3325 7.74638L13.858 10.6798C13.8356 10.8179 13.8579 10.9596 13.9216 11.0841C13.9854 11.2087 14.0872 11.3096 14.2124 11.3722L16.4063 12.4688L16.8558 15.1305C16.1274 16.1343 15.1718 16.9515 14.0672 17.5154C12.9626 18.0793 11.7402 18.3738 10.5 18.375Z" fill="white"/>
</svg>
