<svg width="31" height="32" viewBox="0 0 31 32" fill="none" xmlns="http://www.w3.org/2000/svg">
<g clip-path="url(#clip0_427_991)">
<path d="M5.78384 16.4676C2.68739 16.4676 0.0733008 13.8875 0.0733008 10.7684C0.0733008 7.64931 2.65394 5.06866 5.78384 5.06866C8.90294 5.06866 11.4836 7.64931 11.4836 10.7684C11.4836 13.9096 8.90294 16.4676 5.78384 16.4676ZM21.1662 23.4687H8.07258C7.63555 23.4687 7.25409 23.1099 7.25409 22.6271C7.25409 22.1452 7.63555 21.7859 8.07258 21.7859H20.9752C21.6151 21.7859 22.0079 21.337 22.1083 20.6529L22.2772 19.4745H8.05046C6.88343 19.4745 6.13184 18.9808 5.7056 18.0161C6.67031 18.0161 7.57944 17.8257 8.42059 17.455C8.58893 17.6794 8.80205 17.7803 9.1166 17.7803L22.5351 17.7917L23.4884 11.2848H12.9873C13.0429 10.7684 13.0094 10.0951 12.9312 9.59059H23.7356L23.9373 8.16511C24.0609 7.30184 24.3636 6.86373 25.508 6.86373H29.4574C29.9063 6.86373 30.2878 7.25652 30.2878 7.70542C30.2878 8.16511 29.9063 8.5579 29.4574 8.5579H25.6655L23.8699 20.8773C23.6347 22.4706 22.793 23.4687 21.1662 23.4687ZM5.77305 14.4708C6.16529 14.4708 6.5133 14.201 6.5133 13.7866V11.4526H8.65637C8.83756 11.4517 9.01107 11.3793 9.13919 11.2512C9.26731 11.1231 9.33966 10.9496 9.34051 10.7684C9.34051 10.3983 9.03783 10.0837 8.65637 10.0837H6.5133V7.76153C6.5133 7.33529 6.1653 7.06552 5.77251 7.06552C5.38026 7.06552 5.04412 7.33529 5.04412 7.76153V10.0837H2.90051C2.51906 10.0837 2.2045 10.3977 2.2045 10.7684C2.2045 11.1391 2.51906 11.4526 2.90051 11.4526H5.04358V13.7866C5.04358 14.2015 5.3808 14.4708 5.77305 14.4708ZM20.2792 28.9219C20.0399 28.924 19.8025 28.8784 19.581 28.7878C19.3595 28.6971 19.1583 28.5632 18.9891 28.394C18.8198 28.2247 18.686 28.0234 18.5955 27.8019C18.5049 27.5804 18.4594 27.343 18.4615 27.1037C18.4606 26.8647 18.507 26.6279 18.598 26.4069C18.6891 26.1859 18.823 25.9852 18.9921 25.8163C19.1611 25.6473 19.3619 25.5135 19.5829 25.4226C19.804 25.3317 20.0408 25.2854 20.2798 25.2865C20.519 25.2845 20.7563 25.3301 20.9777 25.4207C21.1991 25.5114 21.4002 25.6452 21.5694 25.8144C21.7386 25.9836 21.8723 26.1848 21.9629 26.4062C22.0535 26.6277 22.099 26.865 22.097 27.1042C22.0998 27.3437 22.0547 27.5813 21.9643 27.8031C21.874 28.0249 21.7402 28.2265 21.5708 28.3958C21.4015 28.5652 21.2 28.699 20.9782 28.7893C20.7564 28.8797 20.5187 28.9247 20.2792 28.9219ZM9.77754 28.9219C9.53826 28.9239 9.30096 28.8783 9.07951 28.7876C8.85806 28.6969 8.65688 28.563 8.48773 28.3938C8.31857 28.2245 8.18481 28.0233 8.09427 27.8018C8.00372 27.5803 7.9582 27.3429 7.96036 27.1037C7.95943 26.8648 8.0058 26.628 8.0968 26.4072C8.18779 26.1863 8.32161 25.9856 8.49053 25.8166C8.65946 25.6477 8.86015 25.5139 9.08104 25.4229C9.30193 25.3319 9.53865 25.2855 9.77754 25.2865C10.7989 25.2865 11.6174 26.0942 11.6174 27.1042C11.6174 28.125 10.7989 28.9219 9.77754 28.9219Z" fill="black"/>
</g>
<defs>
<clipPath id="clip0_427_991">
<rect width="30.2145" height="30.2145" fill="white" transform="translate(0.0732422 0.901733)"/>
</clipPath>
</defs>
</svg>
