<svg width="38" height="38" viewBox="0 0 38 38" fill="none" xmlns="http://www.w3.org/2000/svg">
<path d="M9.4108 11.0366H17.1868C17.5993 11.0366 17.9949 11.2004 18.2865 11.4921C18.5782 11.7837 18.742 12.1793 18.742 12.5918C18.742 13.0042 18.5782 13.3998 18.2865 13.6915C17.9949 13.9831 17.5993 14.147 17.1868 14.147H9.4108C8.99833 14.147 8.60276 13.9831 8.3111 13.6915C8.01944 13.3998 7.85559 13.0042 7.85559 12.5918C7.85559 12.1793 8.01944 11.7837 8.3111 11.4921C8.60276 11.2004 8.99833 11.0366 9.4108 11.0366ZM20.2972 23.4782H28.0733C28.4857 23.4782 28.8813 23.6421 29.173 23.9337C29.4646 24.2254 29.6285 24.621 29.6285 25.0334C29.6285 25.4459 29.4646 25.8415 29.173 26.1331C28.8813 26.4248 28.4857 26.5886 28.0733 26.5886H20.2972C19.8848 26.5886 19.4892 26.4248 19.1975 26.1331C18.9059 25.8415 18.742 25.4459 18.742 25.0334C18.742 24.621 18.9059 24.2254 19.1975 23.9337C19.4892 23.6421 19.8848 23.4782 20.2972 23.4782ZM9.4108 17.2574H28.0733C28.4857 17.2574 28.8813 17.4212 29.173 17.7129C29.4646 18.0046 29.6285 18.4001 29.6285 18.8126C29.6285 19.2251 29.4646 19.6206 29.173 19.9123C28.8813 20.2039 28.4857 20.3678 28.0733 20.3678H9.4108C8.99833 20.3678 8.60276 20.2039 8.3111 19.9123C8.01944 19.6206 7.85559 19.2251 7.85559 18.8126C7.85559 18.4001 8.01944 18.0046 8.3111 17.7129C8.60276 17.4212 8.99833 17.2574 9.4108 17.2574Z" fill="black"/>
</svg>
