<svg width="26" height="26" viewBox="0 0 26 26" fill="none" xmlns="http://www.w3.org/2000/svg">
<g clip-path="url(#clip0_210_938)">
<path d="M13.3997 12.3326H12.5995V17.9326H13.3997V12.3326ZM17.763 18.5055L23.2915 12.6315C23.0944 12.6709 22.8881 12.6626 22.692 12.593L22.3464 12.4683L17.1828 17.9555C17.3194 17.988 17.4449 18.0559 17.5468 18.1525C17.6487 18.2491 17.7233 18.3708 17.763 18.5055ZM8.81729 17.9555L3.65279 12.4683L3.30812 12.593C3.11104 12.6626 2.90478 12.6709 2.70862 12.6315L8.23612 18.5055C8.27595 18.3707 8.35068 18.2489 8.45273 18.1523C8.55479 18.0557 8.68055 17.9878 8.81729 17.9555Z" fill="white"/>
<path d="M18.5999 24.8663C18.5999 25.3814 18.1819 25.7994 17.6667 25.7994H8.33319C8.08585 25.799 7.84877 25.7005 7.67388 25.5256C7.49898 25.3507 7.40051 25.1136 7.40002 24.8663V17.4C7.40002 16.8839 7.81802 16.4669 8.33319 16.4669H17.6658C18.1819 16.4669 18.5999 16.8839 18.5999 17.4V24.8663Z" fill="white"/>
<path d="M17.0004 17.9326H9.00061V24.3327H17.0004V17.9326Z" fill="#454545"/>
<path d="M13 0.333496C13 0.333496 7.15167 1.79741 6.63651 11.7093C5.32384 11.8221 4.53551 12.1557 3.30901 12.593C3.139 12.6545 2.95662 12.6739 2.7775 12.6494C2.59837 12.625 2.42784 12.5575 2.2805 12.4527C2.13213 12.3497 2.01094 12.2122 1.92729 12.0521C1.84364 11.892 1.80002 11.714 1.80017 11.5333C1.80017 5.3495 6.81617 0.333496 13 0.333496ZM24.1998 11.5333C24.1998 11.9009 24.0202 12.2456 23.7195 12.4527C23.5723 12.5574 23.4019 12.6248 23.223 12.6492C23.044 12.6736 22.8618 12.6543 22.6919 12.593C21.4654 12.1548 20.6762 11.8221 19.3644 11.7093C18.8483 1.79741 13 0.333496 13 0.333496C19.1838 0.333496 24.1998 5.3495 24.1998 11.5333Z" fill="white"/>
<path d="M19.3644 11.7093C17.0828 11.5122 15.6794 12.175 13.5399 12.9413C13.1916 13.0651 12.8084 13.0651 12.4601 12.9413C10.3206 12.175 8.91714 11.5122 6.63647 11.7093C7.15164 1.79741 13 0.333496 13 0.333496C13 0.333496 18.8483 1.79741 19.3644 11.7093ZM16.9994 17.9326H16.2688L9.86864 24.3327H12.131L16.9994 19.4652V17.9326ZM16.9994 22.0017L14.6683 24.3327H16.9994V22.0017ZM11.4691 17.9326L9.00056 20.4021V22.6644L13.7315 17.9326H11.4691Z" fill="white"/>
</g>
<defs>
<clipPath id="clip0_210_938">
<rect width="26" height="26" fill="white"/>
</clipPath>
</defs>
</svg>
