<svg width="29" height="29" viewBox="0 0 29 29" fill="none" xmlns="http://www.w3.org/2000/svg">
<path d="M23.788 24.8896L16.3854 17.4871C15.7979 17.9571 15.1223 18.3292 14.3585 18.6033C13.5948 18.8775 12.7821 19.0146 11.9204 19.0146C9.78579 19.0146 7.97941 18.2751 6.50125 16.7962C5.02309 15.3172 4.28362 13.5109 4.28284 11.3771C4.28205 9.24324 5.02153 7.43686 6.50125 5.95792C7.98098 4.47897 9.78736 3.7395 11.9204 3.7395C14.0534 3.7395 15.8602 4.47897 17.3407 5.95792C18.8212 7.43686 19.5603 9.24324 19.5579 11.3771C19.5579 12.2387 19.4209 13.0514 19.1467 13.8152C18.8725 14.5789 18.5004 15.2546 18.0304 15.8421L25.433 23.2446L23.788 24.8896ZM11.9204 16.6646C13.3891 16.6646 14.6378 16.1507 15.6663 15.123C16.6948 14.0952 17.2087 12.8466 17.2079 11.3771C17.2071 9.90751 16.6933 8.65926 15.6663 7.6323C14.6394 6.60535 13.3907 6.09108 11.9204 6.08952C10.4501 6.08795 9.20181 6.60221 8.17564 7.6323C7.14946 8.66239 6.6352 9.91064 6.63285 11.3771C6.6305 12.8435 7.14476 14.0921 8.17564 15.123C9.20651 16.1538 10.4548 16.6677 11.9204 16.6646Z" fill="black"/>
</svg>
